<mxfile host="app.diagrams.net" modified="2023-05-30T18:48:07.989Z" agent="Mozilla/5.0 (Windows NT 10.0; Win64; x64) AppleWebKit/537.36 (KHTML, like Gecko) Chrome/113.0.0.0 Safari/537.36" etag="e1g0NOZ0lNbM0qML7WwF" version="21.3.4" type="device">
  <diagram name="Page-1" id="vhrV0o6yQAJch62LAy8J">
    <mxGraphModel dx="880" dy="484" grid="1" gridSize="10" guides="1" tooltips="1" connect="1" arrows="1" fold="1" page="1" pageScale="1" pageWidth="827" pageHeight="1169" math="0" shadow="0">
      <root>
        <mxCell id="0" />
        <mxCell id="1" parent="0" />
        <mxCell id="rDzSCjBzYk-X5jDjzIjX-53" style="edgeStyle=orthogonalEdgeStyle;rounded=0;orthogonalLoop=1;jettySize=auto;html=1;exitX=0;exitY=1;exitDx=0;exitDy=0;entryX=1.014;entryY=0.133;entryDx=0;entryDy=0;entryPerimeter=0;" edge="1" parent="1" source="rDzSCjBzYk-X5jDjzIjX-23" target="rDzSCjBzYk-X5jDjzIjX-32">
          <mxGeometry relative="1" as="geometry" />
        </mxCell>
        <mxCell id="rDzSCjBzYk-X5jDjzIjX-23" value="" style="rhombus;whiteSpace=wrap;html=1;" vertex="1" parent="1">
          <mxGeometry x="520" y="110" width="20" height="20" as="geometry" />
        </mxCell>
        <mxCell id="rDzSCjBzYk-X5jDjzIjX-84" style="edgeStyle=orthogonalEdgeStyle;rounded=0;orthogonalLoop=1;jettySize=auto;html=1;exitX=0;exitY=0.5;exitDx=0;exitDy=0;entryX=0.993;entryY=0.071;entryDx=0;entryDy=0;entryPerimeter=0;" edge="1" parent="1" source="rDzSCjBzYk-X5jDjzIjX-25" target="rDzSCjBzYk-X5jDjzIjX-35">
          <mxGeometry relative="1" as="geometry">
            <mxPoint x="330" y="480" as="targetPoint" />
            <Array as="points">
              <mxPoint x="331" y="165" />
              <mxPoint x="331" y="465" />
            </Array>
          </mxGeometry>
        </mxCell>
        <mxCell id="rDzSCjBzYk-X5jDjzIjX-25" value="" style="rhombus;whiteSpace=wrap;html=1;" vertex="1" parent="1">
          <mxGeometry x="520" y="155" width="20" height="20" as="geometry" />
        </mxCell>
        <mxCell id="rDzSCjBzYk-X5jDjzIjX-55" style="edgeStyle=orthogonalEdgeStyle;rounded=0;orthogonalLoop=1;jettySize=auto;html=1;exitX=0;exitY=0.5;exitDx=0;exitDy=0;entryX=0.25;entryY=0;entryDx=0;entryDy=0;" edge="1" parent="1" source="rDzSCjBzYk-X5jDjzIjX-26" target="rDzSCjBzYk-X5jDjzIjX-45">
          <mxGeometry relative="1" as="geometry" />
        </mxCell>
        <mxCell id="rDzSCjBzYk-X5jDjzIjX-26" value="" style="rhombus;whiteSpace=wrap;html=1;" vertex="1" parent="1">
          <mxGeometry x="520" y="210" width="20" height="20" as="geometry" />
        </mxCell>
        <mxCell id="rDzSCjBzYk-X5jDjzIjX-30" value="Passenger" style="swimlane;fontStyle=0;childLayout=stackLayout;horizontal=1;startSize=30;horizontalStack=0;resizeParent=1;resizeParentMax=0;resizeLast=0;collapsible=1;marginBottom=0;whiteSpace=wrap;html=1;" vertex="1" parent="1">
          <mxGeometry x="110" y="60" width="140" height="300" as="geometry" />
        </mxCell>
        <mxCell id="rDzSCjBzYk-X5jDjzIjX-31" value="-Name: String" style="text;strokeColor=none;fillColor=none;align=left;verticalAlign=middle;spacingLeft=4;spacingRight=4;overflow=hidden;points=[[0,0.5],[1,0.5]];portConstraint=eastwest;rotatable=0;whiteSpace=wrap;html=1;" vertex="1" parent="rDzSCjBzYk-X5jDjzIjX-30">
          <mxGeometry y="30" width="140" height="30" as="geometry" />
        </mxCell>
        <mxCell id="rDzSCjBzYk-X5jDjzIjX-32" value="-Number: integer" style="text;strokeColor=none;fillColor=none;align=left;verticalAlign=middle;spacingLeft=4;spacingRight=4;overflow=hidden;points=[[0,0.5],[1,0.5]];portConstraint=eastwest;rotatable=0;whiteSpace=wrap;html=1;" vertex="1" parent="rDzSCjBzYk-X5jDjzIjX-30">
          <mxGeometry y="60" width="140" height="30" as="geometry" />
        </mxCell>
        <mxCell id="rDzSCjBzYk-X5jDjzIjX-33" value="-Type: String" style="text;strokeColor=none;fillColor=none;align=left;verticalAlign=middle;spacingLeft=4;spacingRight=4;overflow=hidden;points=[[0,0.5],[1,0.5]];portConstraint=eastwest;rotatable=0;whiteSpace=wrap;html=1;" vertex="1" parent="rDzSCjBzYk-X5jDjzIjX-30">
          <mxGeometry y="90" width="140" height="30" as="geometry" />
        </mxCell>
        <mxCell id="rDzSCjBzYk-X5jDjzIjX-34" value="-Balance: double" style="text;strokeColor=none;fillColor=none;align=left;verticalAlign=middle;spacingLeft=4;spacingRight=4;overflow=hidden;points=[[0,0.5],[1,0.5]];portConstraint=eastwest;rotatable=0;whiteSpace=wrap;html=1;" vertex="1" parent="rDzSCjBzYk-X5jDjzIjX-30">
          <mxGeometry y="120" width="140" height="30" as="geometry" />
        </mxCell>
        <mxCell id="rDzSCjBzYk-X5jDjzIjX-64" value="+setBalance()" style="text;strokeColor=none;fillColor=none;align=left;verticalAlign=middle;spacingLeft=4;spacingRight=4;overflow=hidden;points=[[0,0.5],[1,0.5]];portConstraint=eastwest;rotatable=0;whiteSpace=wrap;html=1;" vertex="1" parent="rDzSCjBzYk-X5jDjzIjX-30">
          <mxGeometry y="150" width="140" height="30" as="geometry" />
        </mxCell>
        <mxCell id="rDzSCjBzYk-X5jDjzIjX-65" value="+findPerson()" style="text;strokeColor=none;fillColor=none;align=left;verticalAlign=middle;spacingLeft=4;spacingRight=4;overflow=hidden;points=[[0,0.5],[1,0.5]];portConstraint=eastwest;rotatable=0;whiteSpace=wrap;html=1;" vertex="1" parent="rDzSCjBzYk-X5jDjzIjX-30">
          <mxGeometry y="180" width="140" height="30" as="geometry" />
        </mxCell>
        <mxCell id="rDzSCjBzYk-X5jDjzIjX-66" value="+CreatePerson()" style="text;strokeColor=none;fillColor=none;align=left;verticalAlign=middle;spacingLeft=4;spacingRight=4;overflow=hidden;points=[[0,0.5],[1,0.5]];portConstraint=eastwest;rotatable=0;whiteSpace=wrap;html=1;" vertex="1" parent="rDzSCjBzYk-X5jDjzIjX-30">
          <mxGeometry y="210" width="140" height="30" as="geometry" />
        </mxCell>
        <mxCell id="rDzSCjBzYk-X5jDjzIjX-67" value="+checkPassengerType()" style="text;strokeColor=none;fillColor=none;align=left;verticalAlign=middle;spacingLeft=4;spacingRight=4;overflow=hidden;points=[[0,0.5],[1,0.5]];portConstraint=eastwest;rotatable=0;whiteSpace=wrap;html=1;" vertex="1" parent="rDzSCjBzYk-X5jDjzIjX-30">
          <mxGeometry y="240" width="140" height="30" as="geometry" />
        </mxCell>
        <mxCell id="rDzSCjBzYk-X5jDjzIjX-82" value="+PrintPassenger()" style="text;strokeColor=none;fillColor=none;align=left;verticalAlign=middle;spacingLeft=4;spacingRight=4;overflow=hidden;points=[[0,0.5],[1,0.5]];portConstraint=eastwest;rotatable=0;whiteSpace=wrap;html=1;" vertex="1" parent="rDzSCjBzYk-X5jDjzIjX-30">
          <mxGeometry y="270" width="140" height="30" as="geometry" />
        </mxCell>
        <mxCell id="rDzSCjBzYk-X5jDjzIjX-68" value="" style="endArrow=none;html=1;rounded=0;exitX=0;exitY=0;exitDx=0;exitDy=0;exitPerimeter=0;" edge="1" parent="rDzSCjBzYk-X5jDjzIjX-30" source="rDzSCjBzYk-X5jDjzIjX-64">
          <mxGeometry width="50" height="50" relative="1" as="geometry">
            <mxPoint x="310" y="250" as="sourcePoint" />
            <mxPoint x="140" y="150" as="targetPoint" />
          </mxGeometry>
        </mxCell>
        <mxCell id="rDzSCjBzYk-X5jDjzIjX-35" value="Activity" style="swimlane;fontStyle=0;childLayout=stackLayout;horizontal=1;startSize=30;horizontalStack=0;resizeParent=1;resizeParentMax=0;resizeLast=0;collapsible=1;marginBottom=0;whiteSpace=wrap;html=1;" vertex="1" parent="1">
          <mxGeometry x="120" y="450" width="140" height="210" as="geometry" />
        </mxCell>
        <mxCell id="rDzSCjBzYk-X5jDjzIjX-36" value="-Name: String" style="text;strokeColor=none;fillColor=none;align=left;verticalAlign=middle;spacingLeft=4;spacingRight=4;overflow=hidden;points=[[0,0.5],[1,0.5]];portConstraint=eastwest;rotatable=0;whiteSpace=wrap;html=1;" vertex="1" parent="rDzSCjBzYk-X5jDjzIjX-35">
          <mxGeometry y="30" width="140" height="30" as="geometry" />
        </mxCell>
        <mxCell id="rDzSCjBzYk-X5jDjzIjX-37" value="-Cost: integer" style="text;strokeColor=none;fillColor=none;align=left;verticalAlign=middle;spacingLeft=4;spacingRight=4;overflow=hidden;points=[[0,0.5],[1,0.5]];portConstraint=eastwest;rotatable=0;whiteSpace=wrap;html=1;" vertex="1" parent="rDzSCjBzYk-X5jDjzIjX-35">
          <mxGeometry y="60" width="140" height="30" as="geometry" />
        </mxCell>
        <mxCell id="rDzSCjBzYk-X5jDjzIjX-38" value="-Description: String" style="text;strokeColor=none;fillColor=none;align=left;verticalAlign=middle;spacingLeft=4;spacingRight=4;overflow=hidden;points=[[0,0.5],[1,0.5]];portConstraint=eastwest;rotatable=0;whiteSpace=wrap;html=1;" vertex="1" parent="rDzSCjBzYk-X5jDjzIjX-35">
          <mxGeometry y="90" width="140" height="30" as="geometry" />
        </mxCell>
        <mxCell id="rDzSCjBzYk-X5jDjzIjX-39" value="-Capacity: integer" style="text;strokeColor=none;fillColor=none;align=left;verticalAlign=middle;spacingLeft=4;spacingRight=4;overflow=hidden;points=[[0,0.5],[1,0.5]];portConstraint=eastwest;rotatable=0;whiteSpace=wrap;html=1;" vertex="1" parent="rDzSCjBzYk-X5jDjzIjX-35">
          <mxGeometry y="120" width="140" height="30" as="geometry" />
        </mxCell>
        <mxCell id="rDzSCjBzYk-X5jDjzIjX-78" value="" style="endArrow=none;html=1;rounded=0;exitX=0;exitY=0;exitDx=0;exitDy=0;exitPerimeter=0;" edge="1" parent="rDzSCjBzYk-X5jDjzIjX-35">
          <mxGeometry width="50" height="50" relative="1" as="geometry">
            <mxPoint y="150" as="sourcePoint" />
            <mxPoint x="140" y="150" as="targetPoint" />
          </mxGeometry>
        </mxCell>
        <mxCell id="rDzSCjBzYk-X5jDjzIjX-80" value="+setCapacity()" style="text;strokeColor=none;fillColor=none;align=left;verticalAlign=middle;spacingLeft=4;spacingRight=4;overflow=hidden;points=[[0,0.5],[1,0.5]];portConstraint=eastwest;rotatable=0;whiteSpace=wrap;html=1;" vertex="1" parent="rDzSCjBzYk-X5jDjzIjX-35">
          <mxGeometry y="150" width="140" height="30" as="geometry" />
        </mxCell>
        <mxCell id="rDzSCjBzYk-X5jDjzIjX-81" value="+PrintActivity()" style="text;strokeColor=none;fillColor=none;align=left;verticalAlign=middle;spacingLeft=4;spacingRight=4;overflow=hidden;points=[[0,0.5],[1,0.5]];portConstraint=eastwest;rotatable=0;whiteSpace=wrap;html=1;" vertex="1" parent="rDzSCjBzYk-X5jDjzIjX-35">
          <mxGeometry y="180" width="140" height="30" as="geometry" />
        </mxCell>
        <mxCell id="rDzSCjBzYk-X5jDjzIjX-40" value="Travel Package" style="swimlane;fontStyle=0;childLayout=stackLayout;horizontal=1;startSize=30;horizontalStack=0;resizeParent=1;resizeParentMax=0;resizeLast=0;collapsible=1;marginBottom=0;whiteSpace=wrap;html=1;" vertex="1" parent="1">
          <mxGeometry x="540" y="90" width="250" height="210" as="geometry" />
        </mxCell>
        <mxCell id="rDzSCjBzYk-X5jDjzIjX-41" value="-Name: String&lt;span style=&quot;white-space: pre;&quot;&gt;	&lt;span style=&quot;white-space: pre;&quot;&gt;	&lt;/span&gt;&lt;/span&gt;" style="text;strokeColor=none;fillColor=none;align=left;verticalAlign=middle;spacingLeft=4;spacingRight=4;overflow=hidden;points=[[0,0.5],[1,0.5]];portConstraint=eastwest;rotatable=0;whiteSpace=wrap;html=1;" vertex="1" parent="rDzSCjBzYk-X5jDjzIjX-40">
          <mxGeometry y="30" width="250" height="30" as="geometry" />
        </mxCell>
        <mxCell id="rDzSCjBzYk-X5jDjzIjX-42" value="-Capacity: integer" style="text;strokeColor=none;fillColor=none;align=left;verticalAlign=middle;spacingLeft=4;spacingRight=4;overflow=hidden;points=[[0,0.5],[1,0.5]];portConstraint=eastwest;rotatable=0;whiteSpace=wrap;html=1;" vertex="1" parent="rDzSCjBzYk-X5jDjzIjX-40">
          <mxGeometry y="60" width="250" height="30" as="geometry" />
        </mxCell>
        <mxCell id="rDzSCjBzYk-X5jDjzIjX-43" value="-Iteniary: List&amp;lt;Destinations with activities&amp;gt;" style="text;strokeColor=none;fillColor=none;align=left;verticalAlign=middle;spacingLeft=4;spacingRight=4;overflow=hidden;points=[[0,0.5],[1,0.5]];portConstraint=eastwest;rotatable=0;whiteSpace=wrap;html=1;" vertex="1" parent="rDzSCjBzYk-X5jDjzIjX-40">
          <mxGeometry y="90" width="250" height="30" as="geometry" />
        </mxCell>
        <mxCell id="rDzSCjBzYk-X5jDjzIjX-72" value="" style="endArrow=none;html=1;rounded=0;exitX=0.004;exitY=0.033;exitDx=0;exitDy=0;exitPerimeter=0;entryX=1;entryY=0;entryDx=0;entryDy=0;entryPerimeter=0;" edge="1" parent="rDzSCjBzYk-X5jDjzIjX-40" source="rDzSCjBzYk-X5jDjzIjX-44" target="rDzSCjBzYk-X5jDjzIjX-44">
          <mxGeometry width="50" height="50" relative="1" as="geometry">
            <mxPoint x="20" y="120" as="sourcePoint" />
            <mxPoint x="160" y="120" as="targetPoint" />
          </mxGeometry>
        </mxCell>
        <mxCell id="rDzSCjBzYk-X5jDjzIjX-69" value="-Passengers: List&amp;lt;Passengers&amp;gt;" style="text;strokeColor=none;fillColor=none;align=left;verticalAlign=middle;spacingLeft=4;spacingRight=4;overflow=hidden;points=[[0,0.5],[1,0.5]];portConstraint=eastwest;rotatable=0;whiteSpace=wrap;html=1;" vertex="1" parent="rDzSCjBzYk-X5jDjzIjX-40">
          <mxGeometry y="120" width="250" height="30" as="geometry" />
        </mxCell>
        <mxCell id="rDzSCjBzYk-X5jDjzIjX-44" value="+setCapacity()" style="text;strokeColor=none;fillColor=none;align=left;verticalAlign=middle;spacingLeft=4;spacingRight=4;overflow=hidden;points=[[0,0.5],[1,0.5]];portConstraint=eastwest;rotatable=0;whiteSpace=wrap;html=1;" vertex="1" parent="rDzSCjBzYk-X5jDjzIjX-40">
          <mxGeometry y="150" width="250" height="30" as="geometry" />
        </mxCell>
        <mxCell id="rDzSCjBzYk-X5jDjzIjX-85" value="+printTravelPackage()" style="text;strokeColor=none;fillColor=none;align=left;verticalAlign=middle;spacingLeft=4;spacingRight=4;overflow=hidden;points=[[0,0.5],[1,0.5]];portConstraint=eastwest;rotatable=0;whiteSpace=wrap;html=1;" vertex="1" parent="rDzSCjBzYk-X5jDjzIjX-40">
          <mxGeometry y="180" width="250" height="30" as="geometry" />
        </mxCell>
        <mxCell id="rDzSCjBzYk-X5jDjzIjX-45" value="Destination" style="swimlane;fontStyle=0;childLayout=stackLayout;horizontal=1;startSize=30;horizontalStack=0;resizeParent=1;resizeParentMax=0;resizeLast=0;collapsible=1;marginBottom=0;whiteSpace=wrap;html=1;" vertex="1" parent="1">
          <mxGeometry x="500" y="380" width="160" height="150" as="geometry" />
        </mxCell>
        <mxCell id="rDzSCjBzYk-X5jDjzIjX-46" value="-Name: String" style="text;strokeColor=none;fillColor=none;align=left;verticalAlign=middle;spacingLeft=4;spacingRight=4;overflow=hidden;points=[[0,0.5],[1,0.5]];portConstraint=eastwest;rotatable=0;whiteSpace=wrap;html=1;" vertex="1" parent="rDzSCjBzYk-X5jDjzIjX-45">
          <mxGeometry y="30" width="160" height="30" as="geometry" />
        </mxCell>
        <mxCell id="rDzSCjBzYk-X5jDjzIjX-47" value="-Activities: List&amp;lt;activities&amp;gt;" style="text;strokeColor=none;fillColor=none;align=left;verticalAlign=middle;spacingLeft=4;spacingRight=4;overflow=hidden;points=[[0,0.5],[1,0.5]];portConstraint=eastwest;rotatable=0;whiteSpace=wrap;html=1;" vertex="1" parent="rDzSCjBzYk-X5jDjzIjX-45">
          <mxGeometry y="60" width="160" height="30" as="geometry" />
        </mxCell>
        <mxCell id="rDzSCjBzYk-X5jDjzIjX-73" value="+checkActivityPresent()" style="text;strokeColor=none;fillColor=none;align=left;verticalAlign=middle;spacingLeft=4;spacingRight=4;overflow=hidden;points=[[0,0.5],[1,0.5]];portConstraint=eastwest;rotatable=0;whiteSpace=wrap;html=1;" vertex="1" parent="rDzSCjBzYk-X5jDjzIjX-45">
          <mxGeometry y="90" width="160" height="30" as="geometry" />
        </mxCell>
        <mxCell id="rDzSCjBzYk-X5jDjzIjX-86" value="+printDestination()" style="text;strokeColor=none;fillColor=none;align=left;verticalAlign=middle;spacingLeft=4;spacingRight=4;overflow=hidden;points=[[0,0.5],[1,0.5]];portConstraint=eastwest;rotatable=0;whiteSpace=wrap;html=1;" vertex="1" parent="rDzSCjBzYk-X5jDjzIjX-45">
          <mxGeometry y="120" width="160" height="30" as="geometry" />
        </mxCell>
        <mxCell id="rDzSCjBzYk-X5jDjzIjX-88" value="" style="endArrow=none;html=1;rounded=0;exitX=0;exitY=0.133;exitDx=0;exitDy=0;exitPerimeter=0;" edge="1" parent="rDzSCjBzYk-X5jDjzIjX-45" source="rDzSCjBzYk-X5jDjzIjX-73">
          <mxGeometry width="50" height="50" relative="1" as="geometry">
            <mxPoint x="-80" y="30" as="sourcePoint" />
            <mxPoint x="160" y="94" as="targetPoint" />
          </mxGeometry>
        </mxCell>
        <mxCell id="rDzSCjBzYk-X5jDjzIjX-52" style="edgeStyle=orthogonalEdgeStyle;rounded=0;orthogonalLoop=1;jettySize=auto;html=1;exitX=0;exitY=0.5;exitDx=0;exitDy=0;entryX=1.021;entryY=-0.167;entryDx=0;entryDy=0;entryPerimeter=0;" edge="1" parent="1" source="rDzSCjBzYk-X5jDjzIjX-51" target="rDzSCjBzYk-X5jDjzIjX-38">
          <mxGeometry relative="1" as="geometry" />
        </mxCell>
        <mxCell id="rDzSCjBzYk-X5jDjzIjX-51" value="" style="rhombus;whiteSpace=wrap;html=1;" vertex="1" parent="1">
          <mxGeometry x="480" y="415" width="20" height="20" as="geometry" />
        </mxCell>
        <mxCell id="rDzSCjBzYk-X5jDjzIjX-58" value="" style="endArrow=none;dashed=1;html=1;dashPattern=1 3;strokeWidth=2;rounded=0;exitX=0.3;exitY=0;exitDx=0;exitDy=0;exitPerimeter=0;entryX=0.357;entryY=1.033;entryDx=0;entryDy=0;entryPerimeter=0;" edge="1" parent="1" source="rDzSCjBzYk-X5jDjzIjX-62" target="rDzSCjBzYk-X5jDjzIjX-82">
          <mxGeometry width="50" height="50" relative="1" as="geometry">
            <mxPoint x="270" y="270" as="sourcePoint" />
            <mxPoint x="162" y="380" as="targetPoint" />
          </mxGeometry>
        </mxCell>
        <mxCell id="rDzSCjBzYk-X5jDjzIjX-60" value="1" style="text;html=1;align=center;verticalAlign=middle;resizable=0;points=[];autosize=1;strokeColor=none;fillColor=none;" vertex="1" parent="1">
          <mxGeometry x="150" y="360" width="30" height="30" as="geometry" />
        </mxCell>
        <mxCell id="rDzSCjBzYk-X5jDjzIjX-61" value="M" style="text;html=1;align=center;verticalAlign=middle;resizable=0;points=[];autosize=1;strokeColor=none;fillColor=none;" vertex="1" parent="1">
          <mxGeometry x="130" y="420" width="30" height="30" as="geometry" />
        </mxCell>
        <mxCell id="rDzSCjBzYk-X5jDjzIjX-83" value="" style="endArrow=none;dashed=1;html=1;dashPattern=1 3;strokeWidth=2;rounded=0;exitX=0.3;exitY=0;exitDx=0;exitDy=0;exitPerimeter=0;entryX=0.357;entryY=1.033;entryDx=0;entryDy=0;entryPerimeter=0;" edge="1" parent="1" source="rDzSCjBzYk-X5jDjzIjX-35" target="rDzSCjBzYk-X5jDjzIjX-62">
          <mxGeometry width="50" height="50" relative="1" as="geometry">
            <mxPoint x="162" y="450" as="sourcePoint" />
            <mxPoint x="160" y="361" as="targetPoint" />
          </mxGeometry>
        </mxCell>
        <mxCell id="rDzSCjBzYk-X5jDjzIjX-62" value="can book&lt;br&gt;" style="text;html=1;align=center;verticalAlign=middle;resizable=0;points=[];autosize=1;strokeColor=none;fillColor=none;" vertex="1" parent="1">
          <mxGeometry x="130" y="390" width="70" height="30" as="geometry" />
        </mxCell>
      </root>
    </mxGraphModel>
  </diagram>
</mxfile>
